{"title":"The.Forbidden.Room.2015.BRRip.480p.x264.AAC-VYTO [P2PDL]","uid":13836471,"size":464277727,"categoryP":"video","categoryS":"movies","magnet":"?xt=urn:btih:73c4f966ed0dec553a7a804e68a4ed0163b57cd6&amp;dn=The.Forbidden.Room.2015.BRRip.480p.x264.AAC-VYTO+%5BP2PDL%5D&amp;tr=udp%3A%2F%2Ftracker.leechers-paradise.org%3A6969&amp;tr=udp%3A%2F%2Fzer0day.ch%3A1337&amp;tr=udp%3A%2F%2Fopen.demonii.com%3A1337&amp;tr=udp%3A%2F%2Ftracker.coppersurfer.tk%3A6969&amp;tr=udp%3A%2F%2Fexodus.desync.com%3A6969","seeders":1,"leechers":0,"uploader":"VYTOP2PDL","files":6,"time":1457763102,"description":"____    ____ ____    ____ .___________.  ______   \r\n     /   /      /   / |           | /  __    \r\n    /   /      /   /  `---|  |----`|  |  |  | \r\n        /     _    _/       |  |     |  |  |  | \r\n       /        |  |         |  |     |  `--'  | \r\n    __/         |__|         |__|      ______/  \r\n                                                  \r\nPresenting Small Encodes with quality for years!\r\n                                                                                                   \r\n                                                                                                   \r\n\r\n\r\nThe.Forbidden.Room.2015.BRRip.480p.x264.AAC-VYTO\r\n\r\n\r\nGenre: Comedy, Mystery  \nhttp://www.imdb.com/title/tt3066630/\r\n\r\n\r\nFormat                                   : MPEG-4\r\nFile size                                : 435 MiB\r\nDuration                                 : 1h 59mn\r\nOverall bit rate                         : 509 Kbps\r\n\r\nVideo\r\nFormat                                   : AVC\r\nBit rate                                 : 477 Kbps\r\nWidth                                    : 720 pixels\r\nHeight                                   : 400 pixels\r\nDisplay aspect ratio                     : 16:9\r\nFrame rate mode                          : Constant\r\nFrame rate                               : 23.976 fps\r\nBit depth                                : 8 bits\r\nStream size                              : 405 MiB (93%)\r\nWriting library                          : x264\r\n\r\nAudio\r\nFormat                                   : AAC\r\nBit rate mode                            : Variable\r\nBit rate                                 : 32.0 Kbps\r\nChannel(s)                               : 2 channels\r\nChannel positions                        : Front: L R\r\nSampling rate                            : 48.0 KHz\r\nStream size                              : 27.3 MiB (6%)\r\nLanguage                                 : English\r\n\r\nSubtitle                                 : N/a\r\n\r\nScreen Shots: (Click to view)\r\n \nhttp://ititli.com/Xe6 \nhttp://ititli.com/Xe8 \nhttp://ititli.com/Xee \nhttp://ititli.com/Xej \nhttp://ititli.com/Xek \nhttp://ititli.com/Xeo \nhttp://ititli.com/XeG \nhttp://ititli.com/XeH \nhttp://ititli.com/XeM\r\n\r\n----------------------------------------------------------------------------------------------------\r\n\r\n\r\nEncoder Notes: Looking For Early Access To Anything You Can Provide WEBDL, DVDScr, DVDR, BluRay,\r\nDirect Audio, Music Releases and Seedboxes. If You Got anything to offer please contact us.\r\n\r\nSupport us by donating BC - 1FgwdzPsd1y25Gea8wP1qni35uGCtmkRCD","torrent":{"xt":"urn:btih:73c4f966ed0dec553a7a804e68a4ed0163b57cd6","amp;dn":"The.Forbidden.Room.2015.BRRip.480p.x264.AAC-VYTO+%5BP2PDL%5D","amp;tr":["udp%3A%2F%2Ftracker.leechers-paradise.org%3A6969","udp%3A%2F%2Fzer0day.ch%3A1337","udp%3A%2F%2Fopen.demonii.com%3A1337","udp%3A%2F%2Ftracker.coppersurfer.tk%3A6969","udp%3A%2F%2Fexodus.desync.com%3A6969"],"infoHash":"73c4f966ed0dec553a7a804e68a4ed0163b57cd6","infoHashBuffer":{"type":"Buffer","data":[115,196,249,102,237,13,236,85,58,122,128,78,104,164,237,1,99,181,124,214]},"announce":[],"urlList":[]}}